<?xml version="1.0" encoding="UTF-8" standalone="no"?>
<!-- Created with Inkscape (http://www.inkscape.org/) -->

<svg
   version="1.1"
   id="svg1"
   width="43.062859"
   height="39.771427"
   viewBox="0 0 43.062859 39.771427"
   xmlns="http://www.w3.org/2000/svg"
   xmlns:svg="http://www.w3.org/2000/svg">
  <defs
     id="defs1" />
  <g
     id="g1">
    <path
       style="fill:#000000"
       d="M 12.617143,38.221043 C 9.8600081,37.801872 8.1130779,36.934862 6.3085716,35.090071 3.6590299,32.381379 3.3643432,31.192467 3.5597574,23.999999 c 0.04061,-1.494689 0.7886179,-3.834605 1.534431,-4.8 0.1748164,-0.226285 0.3944149,-0.734614 0.4879966,-1.12962 0.093582,-0.395005 1.03727,-1.588759 2.0970852,-2.652785 2.4668638,-2.476667 3.5996308,-2.946723 6.5224018,-2.706554 3.311116,0.27208 5.332869,1.198361 6.515203,2.984989 0.848033,1.281464 1.283759,1.349988 0.915464,0.14397 -0.358303,-1.173296 -0.527862,-6.5798894 -0.236549,-7.5426457 0.125563,-0.414973 0.367738,-1.3649992 0.538166,-2.1111692 0.238583,-1.044566 0.59737,-1.6282437 1.559586,-2.5371428 1.083428,-1.023394 1.410524,-1.18047 2.458221,-1.18047 3.027479,0 5.00576,2.1591285 4.623133,5.0457629 -0.281362,2.1226725 -1.48091,4.0278108 -3.001088,4.7663708 -0.69138,0.335898 -1.543905,0.610723 -1.894501,0.610723 -0.878868,0 -2.397416,-0.536872 -3.019182,-1.067411 -0.502985,-0.429186 -0.511651,-0.370436 -0.319297,2.164554 0.195754,2.579804 0.349303,3.510337 1.018358,6.171428 0.20661,0.821771 0.330799,2.924143 0.309857,5.245539 -0.04554,5.0486 -0.697424,7.708846 -2.348707,9.584803 -2.355027,2.675451 -5.260712,3.754067 -8.703193,3.230702 z m 4.090544,-1.398187 c 2.006962,-0.628685 4.849984,-3.384749 5.109834,-4.953543 0.09221,-0.556694 0.278543,-1.361364 0.414077,-1.788156 0.321718,-1.013084 0.07082,-8.241699 -0.329632,-9.496949 -0.870673,-2.729212 -3.314797,-5.846219 -4.895196,-6.242873 -1.980033,-0.496957 -5.924624,-0.06595 -7.4718679,0.816415 -2.0951637,1.194834 -3.8429992,4.727216 -4.8642139,9.830595 -0.4079866,2.038856 0.2957201,6.313024 1.2499226,7.591769 2.3559877,3.157305 3.6806392,4.036791 6.6965322,4.446084 2.323323,0.315302 2.455906,0.308711 4.090544,-0.203342 z M 11.657143,35.177678 C 9.6913508,35.05915 9.3301922,34.799875 10.271631,34.183021 c 0.495064,-0.324379 0.699798,-0.701396 0.699798,-1.288681 0,-1.011875 0.676209,-2.419713 1.469612,-3.059671 0.876627,-0.707085 2.183813,-0.607676 3.19473,0.242955 0.809947,0.681525 0.860492,0.828832 0.77533,2.259608 -0.08998,1.511682 -0.08095,1.532318 0.731757,1.67364 0.482148,0.08384 0.822857,0.312324 0.822857,0.55182 0,0.304946 -0.358571,0.417067 -1.412095,0.441546 -0.776652,0.01805 -1.825795,0.08678 -2.331428,0.15274 -0.505634,0.06596 -1.659906,0.07528 -2.565049,0.0207 z m 3.470749,-1.773675 c 0.299842,-0.472567 0.288102,-1.12959 -0.03539,-1.980434 -0.222788,-0.585976 -0.442838,-0.70357 -1.316572,-0.70357 -0.576991,0 -1.197189,0.148114 -1.378217,0.329143 -0.514787,0.514786 -0.412283,2.335645 0.150857,2.679805 0.594704,0.36345 2.27701,0.151512 2.57932,-0.324944 z m -2.204947,-0.738722 c -0.30318,-0.192008 -0.260486,-0.304519 0.211382,-0.557056 0.661791,-0.354179 1.128531,-0.184272 1.128531,0.410819 0,0.437885 -0.75013,0.519754 -1.339913,0.146237 z m -1.059879,-4.493823 c -0.414972,-0.313872 -0.796144,-0.599646 -0.84705,-0.635052 -0.280438,-0.195053 -0.532658,-2.19805 -0.305399,-2.42531 0.143447,-0.143446 0.260812,-0.461467 0.260812,-0.706714 0,-0.872936 1.326901,-1.775811 2.609802,-1.775811 1.70817,0 2.875912,1.134552 2.875912,2.794173 0,0.650633 -0.102571,1.182969 -0.227937,1.182969 -0.125365,0 -0.389576,0.302025 -0.587134,0.671167 -0.382671,0.715027 -0.71896,0.912314 -2.133292,1.251513 -0.701085,0.168141 -1.052185,0.09199 -1.645714,-0.356935 z m 2.893506,-1.346316 c 0.426328,-0.426328 0.426328,-2.4811 0,-2.907429 -0.475353,-0.475353 -1.876025,-0.404316 -2.460688,0.124797 -0.614066,0.555722 -0.647711,1.683966 -0.07462,2.502173 0.476075,0.679693 1.97073,0.845033 2.535304,0.280459 z m -1.865143,-1.270857 c 0,-0.718402 0.267957,-0.891259 0.876631,-0.565507 0.422703,0.226224 0.464198,0.363312 0.204637,0.676064 -0.457955,0.551801 -1.081268,0.488069 -1.081268,-0.110557 z m -0.400908,-5.07839 c -0.278167,-0.2034 -0.417902,-0.511971 -0.310523,-0.685714 0.246028,-0.398081 1.168155,-0.412124 1.409595,-0.02147 0.239307,0.387206 0.823211,-0.464473 1.008941,-1.471634 0.115815,-0.62803 0.007,-0.835178 -0.604907,-1.15161 -0.647733,-0.334956 -0.823919,-0.331346 -1.33607,0.02738 -1.064069,0.745303 -1.590312,-0.220948 -0.605651,-1.112054 0.309516,-0.280108 0.965026,-0.481368 1.567832,-0.481368 1.496339,0 2.593522,1.250294 2.383813,2.716471 -0.271594,1.898839 -2.232997,3.115979 -3.51303,2.179996 z m 4.898248,-1.936647 c -0.195089,-0.508393 0.0777,-0.984963 0.563788,-0.984963 0.622431,0 0.719972,0.792264 0.136017,1.104787 -0.420059,0.224809 -0.57793,0.197777 -0.699805,-0.119824 z M 27.494224,10.628571 C 29.80031,8.412335 29.620321,4.9493654 27.15912,4.1812287 25.680295,3.7196895 25.559416,3.7361101 24.502733,4.5420814 23.44894,5.3458483 22.857949,6.5785683 22.602234,8.5062376 22.437401,9.7488151 22.486507,9.911561 23.259519,10.684572 23.943345,11.368398 24.319211,11.52 25.330801,11.52 c 1.02117,0 1.396986,-0.154854 2.163423,-0.891429 z M 23.994004,9.4898689 C 23.552059,9.1646572 23.527736,9.0684809 23.862858,8.9713065 25.91367,8.3766382 25.91903,8.3727364 25.965802,7.4403655 c 0.07865,-1.5677699 0.342671,-2.2289371 0.890079,-2.2289371 0.2827,0 0.575915,0.1613465 0.651588,0.3585478 0.18553,0.4834824 -0.05783,3.574178 -0.298594,3.7922576 -0.474711,0.4299757 -2.684769,0.5177182 -3.214871,0.1276351 z m -0.02692,23.5746931 c -0.238719,-0.622092 0.170657,-1.036971 0.887922,-0.899857 0.429683,0.08214 0.653563,-0.003 0.653563,-0.248456 0,-0.205366 -0.109924,-0.373393 -0.244277,-0.373393 -0.44994,0 -0.490414,-1.923597 -0.0537,-2.552231 0.801365,-1.153537 1.501441,-1.54358 2.787309,-1.552929 0.963796,-0.007 1.39309,0.137816 1.849902,0.62407 0.639841,0.681079 1.242091,3.11534 0.833264,3.368008 -0.370405,0.228923 0.0052,0.661653 0.574345,0.661653 0.613673,0 0.906813,0.642346 0.485439,1.06372 -0.407635,0.407635 -1.922243,0.393746 -2.337423,-0.02143 -0.256,-0.256 -0.329143,-0.256 -0.329143,0 0,0.520322 -4.906491,0.453888 -5.1072,-0.06915 z M 29.521,31.290597 c 0.186608,-2.071688 -0.719202,-3.190386 -2.323462,-2.869534 -1.21035,0.24207 -1.661263,1.452892 -0.999014,2.682615 0.398921,0.740751 0.726995,0.959003 1.751873,1.165436 0.693568,0.1397 1.308544,0.222502 1.366613,0.184005 0.05807,-0.0385 0.149865,-0.561633 0.20399,-1.162522 z m 4.573363,1.358599 c -0.911421,-0.385839 -1.541258,-1.81985 -1.367685,-3.113938 0.150452,-1.1217 1.289374,-2.563312 2.107609,-2.667744 1.990784,-0.254086 3.565714,0.899037 3.565714,2.610721 0,1.034819 -0.516257,2.291567 -1.161237,2.826853 -0.529543,0.439482 -2.428278,0.64727 -3.144401,0.344108 z m 2.479518,-1.58634 c 0.811513,-0.658167 0.666704,-2.056273 -0.291005,-2.809606 -0.774553,-0.609264 -1.619548,-0.526624 -2.202875,0.215441 -0.436483,0.55526 -0.445267,2.31347 -0.01371,2.745022 0.482267,0.482268 1.826684,0.401387 2.507594,-0.150857 z m -1.851763,-0.85102 c -0.0795,-0.128633 0.03665,-0.468061 0.258098,-0.754286 0.394913,-0.510418 0.41054,-0.510188 0.814051,0.01199 0.322192,0.416944 0.337062,0.579603 0.06857,0.750086 -0.451586,0.286741 -0.96084,0.283264 -1.14072,-0.0078 z"
       id="path1" />
  </g>
</svg>
