<?xml version="1.0" encoding="utf-8"?>
<svg xmlns="http://www.w3.org/2000/svg" xmlns:svg="http://www.w3.org/2000/svg" version="1.1" viewBox="0 0 33.462856 40.32">
	<title>The number 800^3 + 19 in Minunian heiroglyphics.</title>
	<g>
		<path xmlns="" d="M 12.339585,39.113614 C 7.8353473,38.591911 5.978207,37.256576 4.2164003,33.272818 2.6528025,29.737246 2.9545809,23.95029 4.9039287,20.088654 5.3501476,19.204699 5.9104506,18.319449 6.1490464,18.121432 6.3876422,17.923415 6.582857,17.627226 6.582857,17.463234 c 0,-0.452163 2.4892434,-2.648397 3.468122,-3.059889 1.563953,-0.65744 4.785979,-0.800301 6.541244,-0.290031 1.806826,0.525258 3.615757,1.630805 3.84375,2.349146 0.08599,0.270917 0.334349,0.560886 0.551918,0.644375 0.323041,0.123963 0.371372,-0.110303 0.263562,-1.277518 -0.675166,-7.3097751 -0.425981,-8.9374968 1.692552,-11.0560294 1.190708,-1.1907076 1.23365,-1.2075733 3.074657,-1.2075733 1.715056,0 1.951712,0.073156 2.906443,0.8984564 1.030763,0.891024 1.039205,0.9150356 1.020503,2.9026296 -0.01037,1.1022953 -0.131929,2.1482757 -0.270127,2.3244008 -0.138198,0.176125 -0.325254,0.6313679 -0.415681,1.0116509 -0.243047,1.022121 -1.703114,2.377777 -2.778114,2.579448 -0.972727,0.182485 -1.924526,0.04994 -3.251232,-0.452764 -0.452026,-0.171276 -0.869112,-0.19037 -1.010855,-0.04628 -0.265286,0.269686 0.321627,6.141132 0.792219,7.925311 0.159159,0.603429 0.292325,1.676144 0.295924,2.383813 0.0036,0.707668 0.10272,1.34611 0.22027,1.41876 0.11755,0.07265 0.113706,0.974791 -0.0085,2.004759 -0.122248,1.029967 -0.310996,2.738162 -0.419441,3.795987 -0.314809,3.070806 -3.047785,7.813824 -4.502407,7.813824 -0.761285,0 -0.615466,-0.294107 1.013806,-2.044773 0.829714,-0.891535 1.508571,-1.851452 1.508571,-2.133149 0,-0.281698 0.213659,-0.907191 0.474798,-1.389985 0.696205,-1.287145 0.675065,-9.207242 -0.03089,-11.57495 -0.482265,-1.617458 -2.199047,-4.525714 -2.671591,-4.525714 -0.132486,0 -0.474312,-0.233428 -0.759612,-0.518729 -0.828558,-0.828557 -4.445301,-1.169979 -6.475557,-0.611295 -2.6941958,0.741386 -4.898506,3.394028 -6.2953381,7.575738 -0.5607427,1.678701 -0.8668216,6.447001 -0.4802753,7.482048 0.1533374,0.410588 0.5050629,1.580752 0.7816124,2.600364 0.3260699,1.20219 0.6675732,1.906133 0.9715214,2.002602 0.2577873,0.08182 0.5449216,0.388901 0.6380762,0.682405 0.2099742,0.66157 2.0563444,1.764969 3.6986884,2.210352 1.337041,0.362589 3.451608,0.453488 5.622857,0.241709 1.070587,-0.104422 1.371429,-0.04745 1.371429,0.259739 0,0.241951 -0.528193,0.530419 -1.371429,0.748995 C 15.84,39.32659 15.161142,39.470639 15.085714,39.45118 15.010285,39.43172 13.774527,39.279816 12.339585,39.113614 Z M 27.060223,11.634891 C 27.868979,11.131283 28.609571,8.8173549 28.370267,7.5417524 28.267282,6.9927962 27.87887,6.182186 27.507128,5.7403965 26.96503,5.0961495 26.611715,4.9371428 25.72229,4.9371428 c -2.112658,0 -3.438287,2.2249249 -3.183042,5.3423942 0.08306,1.014515 0.175816,1.123521 1.323609,1.555548 1.283942,0.483273 2.190971,0.426482 3.197366,-0.200194 z m -2.854509,-0.992208 c -0.339429,-0.16701 -0.617143,-0.40388 -0.617143,-0.526376 0,-0.3252144 0.903296,-0.7367984 1.302713,-0.5935773 0.400572,0.1436351 0.514468,-0.1463257 0.750761,-1.9113012 0.140076,-1.0462955 0.27914,-1.3028571 0.706189,-1.3028571 0.469971,0 0.531765,0.2010871 0.531765,1.730433 0,0.9621078 -0.152231,1.9297214 -0.342857,2.1792736 -0.456393,0.597471 -1.568318,0.799883 -2.331428,0.424405 z M 9.3942855,36.02406 C 9.2057141,35.94797 9.0514283,35.719174 9.0514283,35.515626 c 0,-0.44706 0.8540616,-0.757403 1.4524497,-0.52778 0.372371,0.142892 0.410926,-0.04388 0.276976,-1.341727 -0.140652,-1.362791 -0.08744,-1.5759 0.553586,-2.216923 0.973343,-0.973343 2.606013,-0.981796 3.645026,-0.01887 0.715583,0.66318 0.734153,0.749464 0.47227,2.194286 l -0.272603,1.503961 h 0.776148 c 1.171163,0 0.974307,0.718327 -0.252424,0.921093 -1.206395,0.199405 -5.8106423,0.195315 -6.3085715,-0.0056 z m 5.2341285,-1.75609 c 0.466943,-0.666655 0.337153,-1.359083 -0.403834,-2.154438 -0.936131,-1.00482 -2.892751,-0.06507 -2.52385,1.212182 0.430069,1.489037 2.155698,2.044419 2.927684,0.942256 z m -2.011271,-0.788926 c 0,-0.754169 0.469621,-0.950501 0.799444,-0.334219 0.300441,0.561379 0.147678,0.866603 -0.43373,0.866603 -0.201143,0 -0.365714,-0.239572 -0.365714,-0.532384 z m 12.901078,0.0018 C 25.091009,32.682635 25.137491,32.64 26.434986,32.64 c 1.436395,0 1.758931,-0.326707 1.990508,-2.016244 0.09613,-0.701351 0.281435,-1.275185 0.411787,-1.275185 0.130352,0 0.237004,0.123429 0.237004,0.274286 0,0.150857 0.185143,0.274286 0.411429,0.274286 0.858497,0 0.146499,2.455423 -0.98907,3.410941 -1.037618,0.873099 -2.556475,0.961221 -2.978423,0.172805 z m -0.456274,-3.987985 c -0.258675,-0.674097 0.477311,-1.261002 1.804551,-1.439023 1.096297,-0.147044 1.154085,-0.120441 1.066308,0.490883 -0.06627,0.461549 -0.328074,0.698371 -0.915664,0.828291 -0.452571,0.100067 -1.037817,0.271729 -1.300545,0.381472 -0.323788,0.135248 -0.534701,0.05096 -0.65465,-0.261623 z m -13.51294,-1.214379 c -1.054153,-0.984726 -1.174412,-2.560207 -0.282022,-3.694698 0.887044,-1.127693 1.444856,-1.32266 2.804609,-0.980271 2.22319,0.559806 2.662795,2.736934 0.924651,4.579301 -1.104404,1.170628 -2.262097,1.202756 -3.447238,0.09567 z m 2.869311,-0.933279 c 0.614443,-0.528521 0.703804,-0.772215 0.546236,-1.489619 -0.2622,-1.19379 -0.741876,-1.512975 -1.936829,-1.2888 -1.333375,0.250142 -1.704398,1.037231 -1.133273,2.404124 0.506702,1.212709 1.395852,1.344572 2.523866,0.374295 z m -1.52689,-0.723344 c 0,-0.292812 0.09847,-0.593239 0.218811,-0.667616 0.390829,-0.241547 0.962928,0.309634 0.789766,0.760889 -0.237831,0.619777 -1.008577,0.548499 -1.008577,-0.09327 z m 12.172801,-1.237339 c -0.262694,-0.684568 0.15854,-0.973135 1.420529,-0.973135 1.200662,0 1.218098,-0.01325 1.218098,-0.925714 0,-1.443776 0.309544,-2.64 0.683145,-2.64 0.426535,0 0.742797,3.762219 0.374679,4.457143 -0.33692,0.63603 -3.45727,0.705002 -3.696451,0.08171 z M 12.071001,21.314781 c -0.375807,-0.190136 -0.725363,-0.564197 -0.776792,-0.831246 -0.08313,-0.431678 0.06061,-0.465099 1.295716,-0.301256 1.678117,0.22261 2.008328,-0.217723 1.291127,-1.721707 -0.425218,-0.891692 -0.529204,-0.9508 -1.388951,-0.78951 -1.505129,0.282363 -1.549241,-0.499601 -0.065,-1.152192 1.376747,-0.605328 2.916079,0.684804 2.926798,2.452982 0.0088,1.447905 -0.214773,1.844182 -1.294951,2.29551 -1.15309,0.481792 -1.130475,0.481252 -1.987949,0.04742 z m 5.23366,-1.550968 c -0.401469,-0.248122 -0.22679,-1.112385 0.224828,-1.112385 0.421447,0 0.624224,0.506405 0.378557,0.945388 -0.144735,0.258626 -0.35912,0.317961 -0.603385,0.166997 z"/>
	</g>
</svg>
